<?xml version="1.0" encoding="utf-8"?>
<!-- Generator: Adobe Illustrator 25.4.1, SVG Export Plug-In . SVG Version: 6.00 Build 0)  -->
<svg version="1.1" id="Layer_1" xmlns="http://www.w3.org/2000/svg" xmlns:xlink="http://www.w3.org/1999/xlink" x="0px" y="0px"
	 viewBox="0 0 48 48" style="enable-background:new 0 0 48 48;" xml:space="preserve">
<style type="text/css">
	.st0{fill:#00A9CE;}
	.st1{fill:#FFFFFF;}
</style>
<g>
	<path class="st0" d="M46.5,8H31.9V3.2c0-0.8-0.7-1.5-1.5-1.5H17.9c-0.8,0-1.5,0.7-1.5,1.5V8H1.8C1,8,0.3,8.6,0.3,9.4v33.7
		c0,0.8,0.7,1.5,1.5,1.5h44.7c0.8,0,1.5-0.7,1.5-1.5V9.4C48,8.6,47.3,8,46.5,8z M19.4,4.7H29V8h-9.6V4.7z M45.1,41.6H3.3V10.9h14.6
		h12.5h14.6V41.6z"/>
	<path class="st0" d="M19.9,31.2h-1.4c-2.7,0-4.9-2.2-4.9-4.9c0-2.7,2.2-4.9,4.9-4.9h1.4c0.8,0,1.5-0.7,1.5-1.5s-0.7-1.5-1.5-1.5
		h-1.4c-4.3,0-7.8,3.5-7.8,7.8s3.5,7.8,7.8,7.8h1.4c0.8,0,1.5-0.7,1.5-1.5C21.4,31.8,20.7,31.2,19.9,31.2z"/>
	<path class="st0" d="M28.4,18.4c-0.8,0-1.5,0.7-1.5,1.5s0.7,1.5,1.5,1.5h1.4c2.7,0,4.9,2.2,4.9,4.9c0,2.7-2.2,4.9-4.9,4.9h-1.4
		c-0.8,0-1.5,0.7-1.5,1.5c0,0.8,0.7,1.5,1.5,1.5h1.4c4.3,0,7.8-3.5,7.8-7.8s-3.5-7.8-7.8-7.8H28.4z"/>
	<path class="st0" d="M17.8,26.3c0,0.8,0.7,1.5,1.5,1.5h9.8c0.8,0,1.5-0.7,1.5-1.5c0-0.8-0.7-1.5-1.5-1.5h-9.8
		C18.4,24.8,17.8,25.5,17.8,26.3z"/>
</g>
</svg>
