<?xml version="1.0" encoding="utf-8"?>
<!-- Generator: Adobe Illustrator 26.3.1, SVG Export Plug-In . SVG Version: 6.00 Build 0)  -->
<svg version="1.1" xmlns="http://www.w3.org/2000/svg" xmlns:xlink="http://www.w3.org/1999/xlink" x="0px" y="0px"
	 viewBox="0 0 256 256" style="enable-background:new 0 0 256 256;" xml:space="preserve">
<style type="text/css">
	.st0{fill:#FFFFFF;}
	.st1{fill:#00A9CE;}
	.st2{fill:#C5C5C5;}
</style>
<g id="Layer_1">
</g>
<g id="Layer_2">
	<circle class="st1" cx="128" cy="128.69" r="127.02"/>
	<g>
		<g>
			<path class="st0" d="M217.97,187.3L110.1,229.54c-1.63,0.64-3.32,0.95-5,0.95c-3.89,0-7.69-1.66-10.35-4.71
				c-3.81-4.36-4.47-10.65-1.65-15.72l10-17.93c7.74,3.05,16.17,4.73,24.99,4.73c37.65,0,68.17-30.52,68.17-68.17
				c0-22.33-10.74-42.15-27.33-54.58l11.3-20.25c2.83-5.07,8.53-7.81,14.24-6.86c5.72,0.95,10.23,5.38,11.26,11.09l20.74,113.97
				C227.65,178.52,224.09,184.91,217.97,187.3z"/>
			<path class="st0" d="M162.9,47.32l-9.97,17.88c-7.7-3.02-16.07-4.67-24.84-4.67c-37.64,0-68.16,30.51-68.16,68.16
				c0,22.27,10.68,42.05,27.2,54.49l-11.35,20.35c-2.46,4.39-7.08,7.04-11.99,7.04c-0.75,0-1.5-0.06-2.25-0.19
				c-5.72-0.94-10.23-5.38-11.27-11.08L29.53,85.33c-1.17-6.46,2.39-12.85,8.51-15.25l107.87-42.24c5.39-2.11,11.54-0.61,15.35,3.76
				C165.07,35.97,165.73,42.26,162.9,47.32z"/>
		</g>
		<g>
			<g>
				<path class="st0" d="M110.12,156.03c-1.21,0.53-2.68,0.75-4.28,0.59c-0.11-0.01-0.22-0.03-0.34-0.04
					c-0.3-0.04-0.6-0.1-0.91-0.17c-0.16-0.04-0.31-0.07-0.47-0.12c-0.36-0.1-0.72-0.22-1.08-0.36c-0.08-0.03-0.16-0.05-0.24-0.09
					c-0.45-0.19-0.91-0.4-1.37-0.65c-0.02-0.01-0.04-0.03-0.06-0.04c-0.02-0.01-0.04-0.02-0.06-0.03c-0.46-0.25-0.88-0.53-1.28-0.82
					c-0.07-0.05-0.13-0.11-0.2-0.16c-0.31-0.24-0.61-0.48-0.88-0.73c-0.12-0.11-0.23-0.22-0.35-0.34c-0.22-0.22-0.43-0.45-0.62-0.68
					c-0.07-0.09-0.15-0.17-0.22-0.26c-0.99-1.27-1.57-2.63-1.77-3.94c-0.44-3.03-0.15-6.18,7.16-19.37
					c7.31-13.18,9.83-15.1,12.63-16.33c1.18-0.52,2.6-0.75,4.15-0.61c0.05,0,0.1,0.01,0.14,0.02c0.37,0.04,0.75,0.1,1.14,0.19
					c0.15,0.03,0.3,0.07,0.45,0.11c0.36,0.1,0.73,0.21,1.1,0.35c0.1,0.04,0.19,0.07,0.29,0.11c0.47,0.19,0.95,0.41,1.42,0.67
					c0.02,0.01,0.04,0.03,0.06,0.04c0.02,0.01,0.04,0.02,0.06,0.03c0.48,0.26,0.91,0.55,1.32,0.85c0.09,0.06,0.16,0.13,0.24,0.19
					c0.31,0.24,0.61,0.49,0.88,0.74c0.11,0.11,0.23,0.21,0.33,0.32c0.28,0.28,0.53,0.57,0.76,0.87c0.03,0.04,0.06,0.07,0.09,0.11
					c0.94,1.24,1.5,2.57,1.68,3.84c0.15,1.01,0.21,2.03-0.04,3.43c-0.21,1.18,0.36,2.36,1.41,2.94c2.58,1.42,5.94,3.27,8.5,4.68
					c1.74,0.96,3.9-0.13,4.18-2.1c1.63-11.52-3.95-20.59-13.71-26c-7.46-4.14-13.89-4.67-20.68-2.72
					c-9.73,2.79-14.05,10.59-19.76,20.88c-5.7,10.29-10.03,18.09-7.24,27.82c1.95,6.8,5.81,11.96,13.27,16.1
					c9.64,5.34,20.14,5.34,28.98-1.87c1.56-1.27,1.34-3.72-0.42-4.69c-2.54-1.41-5.88-3.26-8.46-4.69
					c-1.01-0.56-2.27-0.47-3.15,0.29C111.83,155.2,110.99,155.65,110.12,156.03z"/>
			</g>
			<g>
				<path class="st0" d="M146.06,100.04c1.21-0.53,2.68-0.75,4.28-0.59c0.11,0.01,0.22,0.03,0.34,0.04c0.3,0.04,0.6,0.1,0.91,0.17
					c0.16,0.04,0.31,0.07,0.47,0.12c0.36,0.1,0.72,0.22,1.08,0.36c0.08,0.03,0.16,0.05,0.24,0.09c0.45,0.19,0.91,0.4,1.37,0.65
					c0.02,0.01,0.04,0.03,0.06,0.04c0.02,0.01,0.04,0.02,0.06,0.03c0.46,0.25,0.88,0.53,1.28,0.82c0.07,0.05,0.13,0.11,0.2,0.16
					c0.31,0.24,0.61,0.48,0.88,0.73c0.12,0.11,0.23,0.22,0.35,0.34c0.22,0.22,0.43,0.45,0.62,0.68c0.07,0.09,0.15,0.17,0.22,0.26
					c0.99,1.27,1.57,2.63,1.77,3.94c0.44,3.03,0.15,6.18-7.16,19.37c-7.31,13.18-9.83,15.1-12.63,16.33
					c-1.18,0.52-2.6,0.75-4.15,0.61c-0.05,0-0.1-0.01-0.14-0.02c-0.37-0.04-0.75-0.1-1.14-0.19c-0.15-0.03-0.3-0.07-0.45-0.11
					c-0.36-0.1-0.73-0.21-1.1-0.35c-0.1-0.04-0.19-0.07-0.29-0.11c-0.47-0.19-0.95-0.41-1.42-0.67c-0.02-0.01-0.04-0.03-0.06-0.04
					c-0.02-0.01-0.04-0.02-0.06-0.03c-0.48-0.26-0.91-0.55-1.32-0.85c-0.09-0.06-0.16-0.13-0.24-0.19
					c-0.31-0.24-0.61-0.49-0.88-0.74c-0.11-0.11-0.23-0.21-0.33-0.32c-0.28-0.28-0.53-0.57-0.76-0.87
					c-0.03-0.04-0.06-0.07-0.09-0.11c-0.94-1.24-1.5-2.57-1.68-3.84c-0.15-1-0.21-2.03,0.04-3.43c0.21-1.18-0.36-2.37-1.42-2.95
					c-2.58-1.42-5.93-3.27-8.49-4.67c-1.74-0.96-3.91,0.13-4.19,2.11c-1.62,11.52,3.95,20.58,13.71,25.99
					c7.46,4.14,13.89,4.67,20.68,2.72c9.73-2.79,14.05-10.59,19.76-20.88c5.7-10.29,10.03-18.09,7.24-27.82
					c-1.95-6.8-5.81-11.96-13.27-16.1c-9.64-5.34-20.14-5.34-28.99,1.87c-1.55,1.27-1.34,3.71,0.42,4.69
					c2.54,1.41,5.89,3.27,8.47,4.7c1.01,0.56,2.27,0.46,3.14-0.28C144.35,100.87,145.19,100.42,146.06,100.04z"/>
			</g>
		</g>
	</g>
</g>
</svg>
